<svg xmlns="http://www.w3.org/2000/svg" viewBox="0 0 143.24 44.97"><defs><style>.cls-1{fill:#fff}</style></defs><g id="Layer_2" data-name="Layer 2"><g id="Screen1"><path class="cls-1" d="M33.83 40.72v2.44a1.22 1.22 0 0 0 2.43 0v-2.44h1.07v2.39C37.33 44.4 36.4 45 35 45s-2.23-.54-2.23-1.86v-2.42ZM40.48 41.36h-1.66v-.64h4.42v.64h-1.69v3.54h-1.07ZM45.8 40.72v4.18h-1.07v-4.18ZM47.83 40.72h1.07v3.54h2.41v.64h-3.48ZM54 40.72v4.18h-1.09v-4.18ZM57.13 41.36h-1.66v-.64h4.42v.64H58.2v3.54h-1.07ZM62.84 44.9v-1.74L61 40.72h1.22l.7 1.07c.2.31.35.55.51.83.15-.26.32-.52.52-.83l.7-1.07h1.21l-2 2.42v1.76ZM69.71 44.07a4 4 0 0 0 1.42.26c.69 0 1.07-.23 1.07-.57s-.3-.5-1-.69c-1-.25-1.57-.61-1.57-1.22s.79-1.2 2.06-1.2a4.17 4.17 0 0 1 1.41.21l-.26.62a3.11 3.11 0 0 0-1.17-.2c-.67 0-1 .26-1 .5s.34.47 1.12.69c1 .27 1.52.64 1.52 1.24S72.57 45 71.06 45a4.54 4.54 0 0 1-1.58-.26ZM78.32 43h-2.2v1.23h2.46v.63h-3.53v-4.14h3.4v.62h-2.33v1.08h2.2ZM80.32 40.77a14.29 14.29 0 0 1 1.62-.08 3.59 3.59 0 0 1 1.8.33 1 1 0 0 1 .51.84c0 .54-.51.9-1.06 1a1.17 1.17 0 0 1 .81.8 6.46 6.46 0 0 0 .47 1.17h-1.11a5.1 5.1 0 0 1-.39-1c-.16-.54-.44-.72-1-.73h-.54v1.8h-1.11Zm1.06 1.85H82c.72 0 1.17-.27 1.17-.69s-.45-.67-1.15-.67a4 4 0 0 0-.66 0ZM87.44 44.9l-1.9-4.18h1.16l.8 1.9a14.28 14.28 0 0 1 .58 1.52 11.55 11.55 0 0 1 .6-1.51l.85-1.91h1.13l-2 4.18ZM93.19 40.72v4.18h-1.07v-4.18ZM99.42 44.77a4.85 4.85 0 0 1-1.52.23c-1.86 0-3-.83-3-2.1s1.34-2.21 3.13-2.21a4.56 4.56 0 0 1 1.43.19l-.24.6a4.11 4.11 0 0 0-1.15-.16c-1.18 0-2 .54-2 1.54s.76 1.51 2 1.51a3.82 3.82 0 0 0 1.16-.16ZM104.4 43h-2.2v1.23h2.46v.63h-3.53v-4.14h3.4v.62h-2.33v1.08h2.2ZM106.37 44.07a4 4 0 0 0 1.42.26c.69 0 1.07-.23 1.07-.57s-.3-.5-1-.69c-1-.25-1.58-.61-1.58-1.22s.8-1.2 2.07-1.2a4.22 4.22 0 0 1 1.41.21l-.26.62a3.11 3.11 0 0 0-1.17-.2c-.67 0-1 .26-1 .5s.34.47 1.12.69c1 .27 1.51.64 1.51 1.24s-.73 1.29-2.24 1.29a4.54 4.54 0 0 1-1.58-.26ZM0 43.15h28.86a1.25 1.25 0 1 0 0-.26H0ZM143.24 42.64h-28.86a1.23 1.23 0 1 0-1.2 1.48 1.22 1.22 0 0 0 1.22-1.22h28.84ZM71.8 36.29a.74.74 0 0 1-.61-.31l-10.48-15a.73.73 0 0 1-.1-.67.78.78 0 0 1 .5-.47 9.22 9.22 0 0 0 4.79-3.14 8.8 8.8 0 0 0 1.8-5.7 10 10 0 0 0-.9-4.54 7.69 7.69 0 0 0-2.41-2.84A10.18 10.18 0 0 0 60.76 2a21.69 21.69 0 0 0-4.61-.47H49.3v34a.74.74 0 1 1-1.48 0V.82a.75.75 0 0 1 .74-.75h7.59a22.81 22.81 0 0 1 4.93.51 11.47 11.47 0 0 1 4.17 1.79 9.22 9.22 0 0 1 2.88 3.38A11.5 11.5 0 0 1 69.19 11a10.32 10.32 0 0 1-2.13 6.68 10.59 10.59 0 0 1-4.56 3.22l9.91 14.22a.75.75 0 0 1-.19 1 .72.72 0 0 1-.42.13M123.48 36.1h-7.85a.75.75 0 0 1-.75-.74.76.76 0 0 1 .75-.75h7.85a21.75 21.75 0 0 0 7.18-1.16 17.67 17.67 0 0 0 5.74-3.3 14.89 14.89 0 0 0 3.8-5.15 16.54 16.54 0 0 0 1.37-6.86 17.28 17.28 0 0 0-1.34-7A15.1 15.1 0 0 0 136.49 6a16.43 16.43 0 0 0-5.73-3.28 22.45 22.45 0 0 0-7.28-1.14h-7.85a.75.75 0 0 1-.75-.74.76.76 0 0 1 .75-.75h7.85a25.91 25.91 0 0 1 7.76 1.22 19.84 19.84 0 0 1 7.47 4.84 16.74 16.74 0 0 1 2.88 4.46 18.68 18.68 0 0 1 1.47 7.56 17.93 17.93 0 0 1-1.51 7.47 16.22 16.22 0 0 1-4.17 5.65 19.16 19.16 0 0 1-6.23 3.58 23.06 23.06 0 0 1-7.67 1.25M43.5 35.36l-.41-1.63L36.13.59A.75.75 0 0 0 35.4 0h-4a.75.75 0 0 0-.69.46l-8.9 21.17L13 .46a.75.75 0 0 0-.68-.46H8.27a.76.76 0 0 0-.73.59L.41 34.24l-.24 1.12a.79.79 0 0 0 .62.93.79.79 0 0 0 1-.55l.05-.21.05-.11c.34-.87 7-33.93 7-33.93h3l9.29 22.35a.73.73 0 0 0 .68.46.82.82 0 0 0 .69-.46l9.29-22.35h3s5.92 28.42 6.86 32.65l.12.61.21.88a.78.78 0 0 0 .64.61h.11a.74.74 0 0 0 .57-.27.8.8 0 0 0 .15-.62"/><path style="fill:#fab814" d="m98.08 5.04-7.17 11.87 6.58-1.13-19.42 20.08 7.95-15.27-5.82.91L91.67.8l4.22.73 2.19 3.51z"/><path class="cls-1" d="M97.15.65a.71.71 0 0 0-.69-.58h-4.77s-.76 0-1 .45L79 21.88l6-.46-8 13.77a.72.72 0 0 0-.08.64.67.67 0 0 0 .88.37.64.64 0 0 0 .37-.37l9.55-16.09-6.41.69L91.54 1.72l.18-.19h4.16S108.71 35 109 35.66a1.06 1.06 0 0 0 .91.63.71.71 0 0 0 .55-.26s0 0 0-.05a.7.7 0 0 0 .14-.6Z"/></g></g></svg>